<svg width="33" height="40" viewBox="0 0 33 40" fill="none" xmlns="http://www.w3.org/2000/svg">
                    <path d="M6 17.4761L3 21.4761V35.4761C3 36.0065 3.21071 36.5152 3.58579 36.8903C3.96086 37.2654 4.46957 37.4761 5 37.4761H19C19.5304 37.4761 20.0391 37.2654 20.4142 36.8903C20.7893 36.5152 21 36.0065 21 35.4761V21.4761L18 17.4761H6Z" stroke="#1D1D1D" stroke-width="2" stroke-linecap="round" stroke-linejoin="round"/>
                    <path d="M3 21.4761H21" stroke="#1D1D1D" stroke-width="2" stroke-linecap="round" stroke-linejoin="round"/>
                    <path d="M16 25.4761C16 26.5369 15.5786 27.5544 14.8284 28.3045C14.0783 29.0546 13.0609 29.4761 12 29.4761C10.9391 29.4761 9.92172 29.0546 9.17157 28.3045C8.42143 27.5544 8 26.5369 8 25.4761" stroke="#1D1D1D" stroke-width="2" stroke-linecap="round" stroke-linejoin="round"/>
                    <circle cx="22.5" cy="17.9761" r="10.5" fill="#024E82"/>
                    <path d="M18.4756 21.4761V20.2861H19.8556V16.6161H18.6656V15.7061C19.0123 15.6394 19.3056 15.5594 19.5456 15.4661C19.7856 15.3727 20.019 15.2594 20.2456 15.1261H21.3256V20.2861H22.5156V21.4761H18.4756ZM25.6988 21.5961C25.3588 21.5961 25.0488 21.5261 24.7688 21.3861C24.4888 21.2394 24.2488 21.0261 24.0488 20.7461C23.8555 20.4661 23.7022 20.1194 23.5888 19.7061C23.4822 19.2927 23.4288 18.8161 23.4288 18.2761C23.4288 17.7361 23.4822 17.2627 23.5888 16.8561C23.7022 16.4494 23.8555 16.1094 24.0488 15.8361C24.2488 15.5561 24.4888 15.3494 24.7688 15.2161C25.0488 15.0761 25.3588 15.0061 25.6988 15.0061C26.0388 15.0061 26.3488 15.0761 26.6288 15.2161C26.9088 15.3494 27.1455 15.5561 27.3388 15.8361C27.5388 16.1094 27.6922 16.4494 27.7988 16.8561C27.9122 17.2627 27.9688 17.7361 27.9688 18.2761C27.9688 18.8161 27.9122 19.2927 27.7988 19.7061C27.6922 20.1194 27.5388 20.4661 27.3388 20.7461C27.1455 21.0261 26.9088 21.2394 26.6288 21.3861C26.3488 21.5261 26.0388 21.5961 25.6988 21.5961ZM25.6988 20.4561C25.8255 20.4561 25.9422 20.4261 26.0488 20.3661C26.1555 20.2994 26.2488 20.1827 26.3288 20.0161C26.4088 19.8494 26.4688 19.6261 26.5088 19.3461C26.5555 19.0661 26.5788 18.7094 26.5788 18.2761C26.5788 17.8427 26.5555 17.4894 26.5088 17.2161C26.4688 16.9361 26.4088 16.7194 26.3288 16.5661C26.2488 16.4061 26.1555 16.2961 26.0488 16.2361C25.9422 16.1761 25.8255 16.1461 25.6988 16.1461C25.5788 16.1461 25.4655 16.1761 25.3588 16.2361C25.2522 16.2961 25.1588 16.4061 25.0788 16.5661C24.9988 16.7194 24.9355 16.9361 24.8888 17.2161C24.8422 17.4894 24.8188 17.8427 24.8188 18.2761C24.8188 18.7094 24.8422 19.0661 24.8888 19.3461C24.9355 19.6261 24.9988 19.8494 25.0788 20.0161C25.1588 20.1827 25.2522 20.2994 25.3588 20.3661C25.4655 20.4261 25.5788 20.4561 25.6988 20.4561Z" fill="white"/>
                    </svg>