<svg width="156" height="44" viewBox="0 0 156 44" fill="none" xmlns="http://www.w3.org/2000/svg">
<path d="M24.3209 10.206V36H22.5749C22.2989 36 22.0649 35.952 21.8729 35.856C21.6929 35.76 21.5129 35.598 21.3329 35.37L6.41091 15.93C6.43491 16.23 6.45291 16.524 6.46491 16.812C6.47691 17.1 6.48291 17.37 6.48291 17.622V36H3.42291V10.206H5.22291C5.37891 10.206 5.51091 10.218 5.61891 10.242C5.72691 10.254 5.82291 10.284 5.90691 10.332C5.99091 10.368 6.07491 10.428 6.15891 10.512C6.24291 10.584 6.33291 10.68 6.42891 10.8L21.3509 30.222C21.3269 29.91 21.3029 29.61 21.2789 29.322C21.2669 29.022 21.2609 28.74 21.2609 28.476V10.206H24.3209ZM37.2826 17.478C38.6146 17.478 39.8146 17.7 40.8826 18.144C41.9506 18.588 42.8626 19.218 43.6186 20.034C44.3746 20.85 44.9506 21.84 45.3466 23.004C45.7546 24.156 45.9586 25.446 45.9586 26.874C45.9586 28.314 45.7546 29.61 45.3466 30.762C44.9506 31.914 44.3746 32.898 43.6186 33.714C42.8626 34.53 41.9506 35.16 40.8826 35.604C39.8146 36.036 38.6146 36.252 37.2826 36.252C35.9386 36.252 34.7266 36.036 33.6466 35.604C32.5786 35.16 31.6666 34.53 30.9106 33.714C30.1546 32.898 29.5726 31.914 29.1646 30.762C28.7686 29.61 28.5706 28.314 28.5706 26.874C28.5706 25.446 28.7686 24.156 29.1646 23.004C29.5726 21.84 30.1546 20.85 30.9106 20.034C31.6666 19.218 32.5786 18.588 33.6466 18.144C34.7266 17.7 35.9386 17.478 37.2826 17.478ZM37.2826 33.75C39.0826 33.75 40.4266 33.15 41.3146 31.95C42.2026 30.738 42.6466 29.052 42.6466 26.892C42.6466 24.72 42.2026 23.028 41.3146 21.816C40.4266 20.604 39.0826 19.998 37.2826 19.998C36.3706 19.998 35.5726 20.154 34.8886 20.466C34.2166 20.778 33.6526 21.228 33.1966 21.816C32.7526 22.404 32.4166 23.13 32.1886 23.994C31.9726 24.846 31.8646 25.812 31.8646 26.892C31.8646 29.052 32.3086 30.738 33.1966 31.95C34.0966 33.15 35.4586 33.75 37.2826 33.75ZM53.0644 21.42C53.6404 20.172 54.3484 19.2 55.1884 18.504C56.0284 17.796 57.0544 17.442 58.2664 17.442C58.6504 17.442 59.0164 17.484 59.3644 17.568C59.7244 17.652 60.0424 17.784 60.3184 17.964L60.0844 20.358C60.0124 20.658 59.8324 20.808 59.5444 20.808C59.3764 20.808 59.1304 20.772 58.8064 20.7C58.4824 20.628 58.1164 20.592 57.7084 20.592C57.1324 20.592 56.6164 20.676 56.1604 20.844C55.7164 21.012 55.3144 21.264 54.9544 21.6C54.6064 21.924 54.2884 22.332 54.0004 22.824C53.7244 23.304 53.4724 23.856 53.2444 24.48V36H50.0224V17.766H51.8584C52.2064 17.766 52.4464 17.832 52.5784 17.964C52.7104 18.096 52.8004 18.324 52.8484 18.648L53.0644 21.42ZM68.7337 36.288C67.2937 36.288 66.1837 35.886 65.4037 35.082C64.6357 34.278 64.2517 33.12 64.2517 31.608V20.448H62.0557C61.8637 20.448 61.7017 20.394 61.5697 20.286C61.4377 20.166 61.3717 19.986 61.3717 19.746V18.468L64.3597 18.09L65.0977 12.456C65.1337 12.276 65.2117 12.132 65.3317 12.024C65.4637 11.904 65.6317 11.844 65.8357 11.844H67.4557V18.126H72.7297V20.448H67.4557V31.392C67.4557 32.16 67.6417 32.73 68.0137 33.102C68.3857 33.474 68.8657 33.66 69.4537 33.66C69.7897 33.66 70.0777 33.618 70.3177 33.534C70.5697 33.438 70.7857 33.336 70.9657 33.228C71.1457 33.12 71.2957 33.024 71.4157 32.94C71.5477 32.844 71.6617 32.796 71.7577 32.796C71.9257 32.796 72.0757 32.898 72.2077 33.102L73.1437 34.632C72.5917 35.148 71.9257 35.556 71.1457 35.856C70.3657 36.144 69.5617 36.288 68.7337 36.288ZM79.26 20.196C80.04 19.368 80.904 18.708 81.852 18.216C82.8 17.724 83.892 17.478 85.128 17.478C86.124 17.478 87 17.646 87.756 17.982C88.524 18.306 89.16 18.774 89.664 19.386C90.18 19.986 90.57 20.712 90.834 21.564C91.098 22.416 91.23 23.358 91.23 24.39V36H88.008V24.39C88.008 23.01 87.69 21.942 87.054 21.186C86.43 20.418 85.476 20.034 84.192 20.034C83.244 20.034 82.356 20.262 81.528 20.718C80.712 21.174 79.956 21.792 79.26 22.572V36H76.038V9.486H79.26V20.196ZM109.711 14.238C109.603 14.418 109.483 14.556 109.351 14.652C109.231 14.736 109.081 14.778 108.901 14.778C108.697 14.778 108.457 14.676 108.181 14.472C107.905 14.268 107.557 14.046 107.137 13.806C106.729 13.554 106.231 13.326 105.643 13.122C105.067 12.918 104.365 12.816 103.537 12.816C102.757 12.816 102.067 12.924 101.467 13.14C100.879 13.344 100.381 13.626 99.9727 13.986C99.5767 14.346 99.2767 14.772 99.0727 15.264C98.8687 15.744 98.7667 16.266 98.7667 16.83C98.7667 17.55 98.9407 18.15 99.2887 18.63C99.6487 19.098 100.117 19.5 100.693 19.836C101.281 20.172 101.941 20.466 102.673 20.718C103.417 20.958 104.173 21.21 104.941 21.474C105.721 21.738 106.477 22.038 107.209 22.374C107.953 22.698 108.613 23.112 109.189 23.616C109.777 24.12 110.245 24.738 110.593 25.47C110.953 26.202 111.133 27.102 111.133 28.17C111.133 29.298 110.941 30.36 110.557 31.356C110.173 32.34 109.609 33.198 108.865 33.93C108.133 34.662 107.227 35.238 106.147 35.658C105.079 36.078 103.861 36.288 102.493 36.288C100.813 36.288 99.2887 35.988 97.9207 35.388C96.5527 34.776 95.3827 33.954 94.4107 32.922L95.4187 31.266C95.5147 31.134 95.6287 31.026 95.7607 30.942C95.9047 30.846 96.0607 30.798 96.2287 30.798C96.3847 30.798 96.5587 30.864 96.7507 30.996C96.9547 31.116 97.1827 31.272 97.4347 31.464C97.6867 31.656 97.9747 31.866 98.2987 32.094C98.6227 32.322 98.9887 32.532 99.3967 32.724C99.8167 32.916 100.291 33.078 100.819 33.21C101.347 33.33 101.941 33.39 102.601 33.39C103.429 33.39 104.167 33.276 104.815 33.048C105.463 32.82 106.009 32.502 106.453 32.094C106.909 31.674 107.257 31.176 107.497 30.6C107.737 30.024 107.857 29.382 107.857 28.674C107.857 27.894 107.677 27.258 107.317 26.766C106.969 26.262 106.507 25.842 105.931 25.506C105.355 25.17 104.695 24.888 103.951 24.66C103.207 24.42 102.451 24.18 101.683 23.94C100.915 23.688 100.159 23.4 99.4147 23.076C98.6707 22.752 98.0107 22.332 97.4347 21.816C96.8587 21.3 96.3907 20.658 96.0307 19.89C95.6827 19.11 95.5087 18.15 95.5087 17.01C95.5087 16.098 95.6827 15.216 96.0307 14.364C96.3907 13.512 96.9067 12.756 97.5787 12.096C98.2627 11.436 99.0967 10.908 100.081 10.512C101.077 10.116 102.217 9.918 103.501 9.918C104.941 9.918 106.249 10.146 107.425 10.602C108.613 11.058 109.657 11.718 110.557 12.582L109.711 14.238ZM120.097 36.288C118.657 36.288 117.547 35.886 116.767 35.082C115.999 34.278 115.615 33.12 115.615 31.608V20.448H113.419C113.227 20.448 113.065 20.394 112.933 20.286C112.801 20.166 112.735 19.986 112.735 19.746V18.468L115.723 18.09L116.461 12.456C116.497 12.276 116.575 12.132 116.695 12.024C116.827 11.904 116.995 11.844 117.199 11.844H118.819V18.126H124.093V20.448H118.819V31.392C118.819 32.16 119.005 32.73 119.377 33.102C119.749 33.474 120.229 33.66 120.817 33.66C121.153 33.66 121.441 33.618 121.681 33.534C121.933 33.438 122.149 33.336 122.329 33.228C122.509 33.12 122.659 33.024 122.779 32.94C122.911 32.844 123.025 32.796 123.121 32.796C123.289 32.796 123.439 32.898 123.571 33.102L124.507 34.632C123.955 35.148 123.289 35.556 122.509 35.856C121.729 36.144 120.925 36.288 120.097 36.288ZM137.283 27.792C135.807 27.84 134.547 27.96 133.503 28.152C132.471 28.332 131.625 28.572 130.965 28.872C130.317 29.172 129.843 29.526 129.543 29.934C129.255 30.342 129.111 30.798 129.111 31.302C129.111 31.782 129.189 32.196 129.345 32.544C129.501 32.892 129.711 33.18 129.975 33.408C130.251 33.624 130.569 33.786 130.929 33.894C131.301 33.99 131.697 34.038 132.117 34.038C132.681 34.038 133.197 33.984 133.665 33.876C134.133 33.756 134.571 33.588 134.979 33.372C135.399 33.156 135.795 32.898 136.167 32.598C136.551 32.298 136.923 31.956 137.283 31.572V27.792ZM126.933 20.34C127.941 19.368 129.027 18.642 130.191 18.162C131.355 17.682 132.645 17.442 134.061 17.442C135.081 17.442 135.987 17.61 136.779 17.946C137.571 18.282 138.237 18.75 138.777 19.35C139.317 19.95 139.725 20.676 140.001 21.528C140.277 22.38 140.415 23.316 140.415 24.336V36H138.993C138.681 36 138.441 35.952 138.273 35.856C138.105 35.748 137.973 35.544 137.877 35.244L137.517 33.516C137.037 33.96 136.569 34.356 136.113 34.704C135.657 35.04 135.177 35.328 134.673 35.568C134.169 35.796 133.629 35.97 133.053 36.09C132.489 36.222 131.859 36.288 131.163 36.288C130.455 36.288 129.789 36.192 129.165 36C128.541 35.796 127.995 35.496 127.527 35.1C127.071 34.704 126.705 34.206 126.429 33.606C126.165 32.994 126.033 32.274 126.033 31.446C126.033 30.726 126.231 30.036 126.627 29.376C127.023 28.704 127.665 28.11 128.553 27.594C129.441 27.078 130.599 26.658 132.027 26.334C133.455 25.998 135.207 25.806 137.283 25.758V24.336C137.283 22.92 136.977 21.852 136.365 21.132C135.753 20.4 134.859 20.034 133.683 20.034C132.891 20.034 132.225 20.136 131.685 20.34C131.157 20.532 130.695 20.754 130.299 21.006C129.915 21.246 129.579 21.468 129.291 21.672C129.015 21.864 128.739 21.96 128.463 21.96C128.247 21.96 128.061 21.906 127.905 21.798C127.749 21.678 127.617 21.534 127.509 21.366L126.933 20.34ZM148.338 21.42C148.914 20.172 149.622 19.2 150.462 18.504C151.302 17.796 152.328 17.442 153.54 17.442C153.924 17.442 154.29 17.484 154.638 17.568C154.998 17.652 155.316 17.784 155.592 17.964L155.358 20.358C155.286 20.658 155.106 20.808 154.818 20.808C154.65 20.808 154.404 20.772 154.08 20.7C153.756 20.628 153.39 20.592 152.982 20.592C152.406 20.592 151.89 20.676 151.434 20.844C150.99 21.012 150.588 21.264 150.228 21.6C149.88 21.924 149.562 22.332 149.274 22.824C148.998 23.304 148.746 23.856 148.518 24.48V36H145.296V17.766H147.132C147.48 17.766 147.72 17.832 147.852 17.964C147.984 18.096 148.074 18.324 148.122 18.648L148.338 21.42Z" fill="#1D1D1D"/>
</svg>
