<svg width="15" height="14" viewBox="0 0 15 14" fill="none" xmlns="http://www.w3.org/2000/svg">
<path d="M6.76367 1.08203C6.91602 0.777344 7.16146 0.625 7.5 0.625C7.83854 0.625 8.08398 0.777344 8.23633 1.08203L9.88672 4.43359L13.5938 4.99219C13.9323 5.02604 14.1523 5.20378 14.2539 5.52539C14.3555 5.84701 14.2878 6.1263 14.0508 6.36328L11.3594 8.97852L11.9941 12.6855C12.0449 13.0072 11.9349 13.2611 11.6641 13.4473C11.3932 13.6504 11.1139 13.6758 10.8262 13.5234L7.5 11.7969L4.17383 13.5234C3.88607 13.6927 3.60677 13.6758 3.33594 13.4727C3.0651 13.2695 2.95508 13.0072 3.00586 12.6855L3.64062 8.97852L0.949219 6.36328C0.71224 6.1263 0.644531 5.84701 0.746094 5.52539C0.847656 5.20378 1.06771 5.02604 1.40625 4.99219L5.11328 4.43359L6.76367 1.08203Z" fill="#D6763C" fill-opacity="0.38"/>
</svg>
